<?xml version="1.0" standalone="no"?>
<!DOCTYPE svg PUBLIC "-//W3C//DTD SVG 20010904//EN"
 "http://www.w3.org/TR/2001/REC-SVG-20010904/DTD/svg10.dtd">
<svg version="1.0" xmlns="http://www.w3.org/2000/svg"
 width="512.000000pt" height="512.000000pt" viewBox="0 0 512.000000 512.000000"
 preserveAspectRatio="xMidYMid meet">

<g transform="translate(0.000000,512.000000) scale(0.100000,-0.100000)"
fill="#000000" stroke="none">
<path d="M2450 5114 c-180 -35 -318 -110 -438 -239 -73 -78 -138 -189 -166
-283 -103 -352 56 -723 379 -883 403 -199 882 -10 1035 408 97 267 38 556
-157 763 -103 110 -211 175 -358 217 -51 14 -250 26 -295 17z m276 -235 c170
-52 317 -218 355 -397 16 -78 7 -214 -19 -285 -56 -155 -176 -273 -333 -328
-91 -33 -247 -33 -338 0 -157 55 -277 173 -333 328 -15 39 -23 90 -26 158 -4
88 -1 109 22 178 43 129 109 215 219 288 132 86 294 107 453 58z"/>
<path d="M2449 4786 c-147 -41 -266 -163 -304 -314 -21 -80 -13 -136 25 -174
61 -60 161 -22 175 68 22 141 81 205 202 220 62 8 91 27 109 71 12 28 13 42 3
70 -22 67 -101 89 -210 59z"/>
<path d="M762 4259 c-160 -28 -312 -141 -382 -284 -80 -162 -79 -334 2 -489
41 -78 146 -183 224 -224 262 -137 594 -31 722 232 43 87 55 139 55 236 1 240
-151 446 -380 513 -70 21 -176 28 -241 16z m198 -226 c66 -21 143 -89 177
-157 37 -73 43 -180 13 -258 -63 -168 -261 -249 -426 -174 -261 118 -250 481
19 588 54 22 151 22 217 1z"/>
<path d="M3970 3395 c-370 -83 -641 -343 -742 -713 -31 -113 -31 -333 0 -456
87 -346 352 -612 698 -702 134 -35 318 -37 447 -6 300 73 528 260 658 537 63
134 83 235 83 405 -1 159 -15 233 -74 373 -108 260 -356 474 -635 548 -105 28
-339 36 -435 14z m338 -211 c275 -57 501 -270 573 -541 30 -111 30 -270 0
-378 -59 -215 -199 -385 -396 -480 -213 -103 -446 -101 -660 4 -192 95 -326
262 -387 478 -29 106 -29 266 1 376 41 156 162 332 286 417 175 121 384 165
583 124z"/>
<path d="M4097 3070 c-83 -66 -34 -190 75 -190 46 0 140 -25 190 -51 61 -31
150 -125 181 -191 16 -34 33 -96 41 -150 17 -111 38 -138 111 -138 36 0 47 5
69 31 34 40 40 66 34 147 -6 78 -35 163 -80 241 -48 80 -171 201 -249 244
-127 71 -318 100 -372 57z"/>
<path d="M1230 2765 c-8 -2 -49 -9 -90 -15 -103 -17 -247 -64 -355 -115 -393
-189 -674 -554 -762 -992 -25 -123 -25 -395 0 -513 62 -292 181 -515 387 -720
205 -205 429 -325 720 -387 117 -24 389 -24 513 0 565 113 998 547 1108 1112
22 109 19 418 -5 524 -121 555 -527 963 -1079 1086 -66 15 -395 30 -437 20z
m330 -219 c592 -90 1024 -612 997 -1206 -15 -322 -137 -587 -374 -810 -447
-421 -1146 -420 -1597 1 -260 243 -403 616 -367 960 21 194 76 361 173 517 58
93 192 241 278 306 257 197 574 279 890 232z"/>
<path d="M2190 1372 c-38 -19 -47 -39 -75 -163 -44 -204 -202 -400 -400 -494
-88 -42 -170 -63 -286 -74 -73 -7 -94 -13 -114 -31 -53 -49 -38 -144 27 -171
45 -19 206 -5 313 26 362 106 621 394 685 762 14 81 -3 127 -54 148 -45 19
-54 19 -96 -3z"/>
</g>
</svg>
