<?xml version="1.0" standalone="no"?>
<!DOCTYPE svg PUBLIC "-//W3C//DTD SVG 20010904//EN"
 "http://www.w3.org/TR/2001/REC-SVG-20010904/DTD/svg10.dtd">
<svg version="1.0" xmlns="http://www.w3.org/2000/svg"
 width="512.000000pt" height="512.000000pt" viewBox="0 0 512.000000 512.000000"
 preserveAspectRatio="xMidYMid meet">

<g transform="translate(0.000000,512.000000) scale(0.100000,-0.100000)"
fill="#000000" stroke="none">
<path d="M1230 4865 c-256 -123 -544 -263 -641 -309 -199 -96 -199 -96 -195
-203 2 -42 8 -69 19 -81 10 -11 84 -39 179 -68 l161 -48 -159 -76 c-87 -42
-166 -85 -175 -96 -25 -28 -24 -156 1 -187 l19 -24 -165 -78 c-101 -48 -169
-87 -176 -99 -17 -31 -18 -136 -2 -168 15 -28 36 -36 310 -118 l70 -21 -2 -75
c-4 -97 9 -118 82 -140 30 -8 54 -17 54 -20 0 -2 -24 -15 -52 -28 -74 -32 -82
-45 -82 -132 0 -63 3 -77 24 -99 13 -13 38 -28 57 -31 18 -3 35 -9 38 -13 2
-4 -37 -27 -86 -52 -50 -24 -95 -50 -101 -56 -16 -20 -18 -144 -2 -174 7 -15
28 -32 46 -39 l33 -11 -60 -31 c-98 -49 -104 -58 -104 -148 0 -91 13 -109 94
-133 l50 -14 -215 -105 c-118 -57 -222 -112 -229 -122 -9 -11 -16 -45 -17 -87
-4 -106 -3 -107 270 -189 126 -38 236 -72 243 -75 11 -3 7 -11 -13 -29 -25
-21 -28 -31 -30 -94 -3 -88 13 -113 88 -138 l52 -17 -55 -28 c-77 -38 -83 -48
-83 -135 0 -61 4 -78 20 -95 15 -14 470 -155 1569 -484 852 -256 1559 -465
1572 -465 24 0 1253 714 1302 756 23 19 25 29 25 98 0 91 -13 110 -89 130
l-49 12 50 28 c83 48 83 49 83 138 0 102 -13 116 -121 142 -43 10 -78 21 -78
24 0 4 76 51 169 105 93 53 172 105 176 115 4 9 9 47 11 85 4 103 -1 107 -235
166 -106 28 -195 52 -197 54 -2 2 18 16 45 30 69 38 76 49 77 131 2 82 -6 103
-48 121 l-31 12 71 43 c78 46 85 58 87 140 1 78 -15 107 -72 123 l-46 13 82
48 c110 65 120 79 116 167 -3 85 -17 103 -87 120 l-51 12 39 22 c89 52 94 59
93 138 0 40 -2 80 -5 90 -7 24 -45 41 -136 63 -43 10 -78 20 -78 23 0 3 43 31
96 61 53 30 100 62 104 70 5 9 9 50 9 92 0 71 -2 79 -25 97 -14 11 -50 25 -80
32 -30 7 -54 15 -54 18 0 4 16 15 36 26 52 28 62 50 63 131 0 98 -10 106 -185
151 -77 19 -140 36 -142 37 -1 2 65 43 148 91 101 59 156 97 164 114 16 32 13
146 -5 167 -7 8 -20 19 -30 24 -28 15 -3090 800 -3118 799 -14 0 -235 -101
-491 -224z m2015 -245 c836 -215 1528 -393 1537 -398 12 -5 -145 -102 -588
-362 -333 -195 -615 -359 -627 -364 -17 -6 -385 100 -1550 450 -840 252 -1527
461 -1527 464 0 5 1214 596 1230 599 3 1 690 -175 1525 -389z m-977 -835 c763
-229 1292 -383 1303 -380 11 4 184 103 385 221 201 118 374 218 384 224 13 7
76 -5 239 -47 122 -31 221 -59 221 -62 -1 -3 -280 -169 -621 -368 l-620 -363
-1502 450 c-1718 516 -1570 470 -1563 477 8 9 470 231 480 232 5 1 587 -172
1294 -384z m-1598 1 c0 -2 -42 -25 -94 -50 -74 -36 -96 -51 -106 -75 -16 -40
-2 -81 36 -102 16 -9 665 -206 1442 -439 1169 -350 1409 -425 1395 -435 -10
-6 -36 -22 -59 -34 l-41 -23 -1524 457 c-838 252 -1529 460 -1536 464 -6 3 98
59 230 123 233 112 257 123 257 114z m1517 -450 c744 -223 1363 -406 1376
-406 13 0 212 111 443 246 230 135 454 266 497 291 l78 45 132 -32 c73 -18
137 -36 143 -39 10 -5 -1199 -722 -1231 -729 -16 -4 -3065 909 -3065 918 0 3
51 31 113 63 74 37 120 55 137 53 14 -3 634 -187 1377 -410z m-222 -411 c688
-206 1264 -375 1281 -375 19 0 65 21 125 56 l94 56 65 -18 c36 -10 79 -18 95
-17 20 0 170 83 468 258 l439 258 166 -42 c163 -42 180 -47 171 -55 -2 -2
-282 -166 -621 -365 l-617 -361 -1503 451 c-827 248 -1519 456 -1538 461 l-35
10 65 34 c36 18 72 31 80 29 8 -3 578 -173 1265 -380z m262 -270 c760 -228
1392 -415 1403 -415 29 0 30 0 542 301 l457 268 127 -33 128 -33 -87 -51 c-48
-28 -329 -193 -625 -366 l-538 -316 -1534 460 c-843 253 -1536 460 -1539 461
-6 1 269 138 278 139 2 0 627 -187 1388 -415z m3 -310 c761 -228 1394 -415
1407 -415 13 0 218 114 456 253 238 140 442 259 455 266 19 10 41 7 132 -16
61 -15 109 -31 108 -35 -2 -4 -280 -170 -618 -369 l-615 -361 -1460 438 c-803
240 -1496 448 -1540 462 l-80 24 170 83 c94 46 177 84 186 84 9 1 638 -186
1399 -414z m-104 -335 c771 -231 1414 -420 1430 -420 18 0 185 93 498 276
l471 276 93 -23 c51 -12 95 -25 96 -28 2 -3 -275 -170 -617 -370 l-620 -363
-1526 457 c-839 252 -1530 460 -1536 463 -9 6 280 152 299 152 6 0 641 -189
1412 -420z m-1345 70 l74 -22 -100 -50 c-55 -27 -106 -57 -112 -66 -21 -26
-16 -80 10 -105 17 -17 355 -121 1360 -422 735 -220 1337 -403 1337 -406 0 -3
-42 -31 -94 -61 l-94 -56 -1536 461 c-844 254 -1533 463 -1530 466 13 14 590
289 600 286 6 -2 45 -13 85 -25z m1435 -430 c679 -203 1246 -370 1260 -370 32
0 -6 -21 534 296 l466 272 277 -71 c210 -54 274 -74 264 -83 -26 -24 -1222
-718 -1237 -718 -8 0 -703 207 -1544 459 l-1530 459 130 62 c71 35 133 63 137
63 4 1 563 -165 1243 -369z m931 -837 c28 -5 53 6 175 78 78 45 149 82 158 82
9 -1 77 -20 151 -42 75 -23 146 -41 159 -41 13 0 189 97 391 216 l368 215 166
-42 c91 -23 164 -43 163 -45 -2 -1 -283 -166 -625 -367 l-621 -365 -1524 458
c-837 251 -1530 459 -1538 462 -9 4 26 25 89 55 l104 49 1176 -353 c647 -195
1191 -356 1208 -360z m-908 21 c762 -228 1395 -414 1406 -412 11 3 237 132
502 287 l482 283 126 -33 c69 -17 123 -34 121 -36 -17 -18 -1234 -726 -1246
-725 -11 0 -2894 861 -3049 910 -21 7 -7 17 110 74 74 37 140 67 148 67 8 1
638 -186 1400 -415z"/>
</g>
</svg>
