<?xml version="1.0" standalone="no"?>
<!DOCTYPE svg PUBLIC "-//W3C//DTD SVG 20010904//EN"
 "http://www.w3.org/TR/2001/REC-SVG-20010904/DTD/svg10.dtd">
<svg version="1.0" xmlns="http://www.w3.org/2000/svg"
 width="512.000000pt" height="512.000000pt" viewBox="0 0 512.000000 512.000000"
 preserveAspectRatio="xMidYMid meet">

<g transform="translate(0.000000,512.000000) scale(0.100000,-0.100000)"
fill="#000000" stroke="none">
<path d="M1927 4492 c-345 -345 -627 -630 -627 -635 0 -4 185 -7 410 -7 l410
0 0 -471 c0 -525 -1 -535 -68 -664 -32 -62 -86 -120 -462 -500 -362 -366 -435
-445 -492 -530 -109 -165 -168 -297 -213 -475 -39 -158 -45 -250 -45 -742 l0
-468 435 0 435 0 0 458 c0 513 3 544 67 672 34 69 65 103 410 450 l373 375
373 -375 c512 -514 477 -431 477 -1122 l0 -458 435 0 435 0 0 473 c0 502 -7
604 -50 761 -47 169 -105 295 -208 451 -57 85 -130 164 -492 530 -376 380
-430 438 -462 500 -67 129 -68 139 -68 664 l0 471 410 0 c226 0 410 3 410 8 0
8 -1252 1262 -1260 1262 -3 0 -287 -282 -633 -628z"/>
</g>
</svg>
